<mxfile host="www.draw.io" modified="2020-02-27T09:04:32.137Z" agent="Mozilla/5.0 (X11; Ubuntu; Linux x86_64; rv:73.0) Gecko/20100101 Firefox/73.0" etag="-JBqkg8WYokQyDfWtxg3" version="12.7.8" type="github">
  <diagram id="Y-nib8fCA2N9Tlaf0Vf-" name="Page-1">
    <mxGraphModel dx="1422" dy="863" grid="1" gridSize="10" guides="1" tooltips="1" connect="1" arrows="1" fold="1" page="1" pageScale="1" pageWidth="850" pageHeight="1100" math="0" shadow="0">
      <root>
        <mxCell id="0" />
        <mxCell id="1" parent="0" />
        <mxCell id="_HwPMVLMC0p8Oq2jqwdT-1" value="" style="rounded=0;whiteSpace=wrap;html=1;" vertex="1" parent="1">
          <mxGeometry x="300" y="380" width="120" height="60" as="geometry" />
        </mxCell>
      </root>
    </mxGraphModel>
  </diagram>
</mxfile>
